# xmcd CD database file
#
# Track frame offsets:
#	150
#	19839
#	40523
#	58988
#	81872
#	97787
#	114626
#	135717
#	152180
#	171428
#	189654
#	205052
#	229938
#
# Disc length: 3332 seconds
#
# Revision: 5
# Processed by: cddbd v1.5.2PL0 Copyright (c) Steve Scherf et al.
# Submitted via: CDex 1.72
#
DISCID=ad0d020d
DTITLE=Emmylou Harris, Emmylou (USA-08-All I Intended To Be- cty) - All I Intended To Be
DYEAR=2008
DGENRE=Country
TTITLE0=Shores of White Sand
TTITLE1=Hold On
TTITLE2=Moon Song
TTITLE3=Broken Man's Lament
TTITLE4=Gold
TTITLE5=How She Could Sing the Wildwood Flower
TTITLE6=All That You Have Is Your Soul
TTITLE7=Take That Ride
TTITLE8=Old Five and Dimers Like Me
TTITLE9=Kern River
TTITLE10=Not Enough
TTITLE11=Sailing Round the Room
TTITLE12=Beyond the Great Divide
EXTD=YEAR: 2008
EXTT0=
EXTT1=
EXTT2=
EXTT3=
EXTT4=
EXTT5=
EXTT6=
EXTT7=
EXTT8=
EXTT9=
EXTT10=
EXTT11=
EXTT12=
PLAYORDER=
